<mxfile host="app.diagrams.net" agent="Mozilla/5.0 (Macintosh; Intel Mac OS X 10_15_7) AppleWebKit/537.36 (KHTML, like Gecko) Chrome/141.0.0.0 Safari/537.36" version="28.2.7">
  <diagram name="Page-1" id="WrCyCwR-pwRqmcC4VDPA">
    <mxGraphModel dx="1426" dy="980" grid="1" gridSize="10" guides="1" tooltips="1" connect="1" arrows="1" fold="1" page="1" pageScale="1" pageWidth="850" pageHeight="1100" math="0" shadow="0">
      <root>
        <mxCell id="0" />
        <mxCell id="1" parent="0" />
        <mxCell id="qcs8tJE03QUGFS-U6SH_-119" value="" style="rounded=1;whiteSpace=wrap;html=1;strokeColor=#FF3333;dashed=1;strokeWidth=3;" vertex="1" parent="1">
          <mxGeometry x="1930" y="420" width="160" height="440" as="geometry" />
        </mxCell>
        <mxCell id="qcs8tJE03QUGFS-U6SH_-4" value="" style="group" vertex="1" connectable="0" parent="1">
          <mxGeometry x="150" y="170" width="170" height="110" as="geometry" />
        </mxCell>
        <mxCell id="qcs8tJE03QUGFS-U6SH_-1" value="Analyze Server" style="rounded=1;whiteSpace=wrap;html=1;" vertex="1" parent="qcs8tJE03QUGFS-U6SH_-4">
          <mxGeometry width="170" height="90" as="geometry" />
        </mxCell>
        <mxCell id="qcs8tJE03QUGFS-U6SH_-3" value="" style="image;aspect=fixed;perimeter=ellipsePerimeter;html=1;align=center;shadow=0;dashed=0;spacingTop=3;image=img/lib/active_directory/generic_server.svg;" vertex="1" parent="qcs8tJE03QUGFS-U6SH_-4">
          <mxGeometry x="120" y="60" width="28.000000000000004" height="50" as="geometry" />
        </mxCell>
        <mxCell id="qcs8tJE03QUGFS-U6SH_-8" value="" style="edgeStyle=orthogonalEdgeStyle;rounded=0;orthogonalLoop=1;jettySize=auto;html=1;" edge="1" parent="1" source="qcs8tJE03QUGFS-U6SH_-5" target="qcs8tJE03QUGFS-U6SH_-7">
          <mxGeometry relative="1" as="geometry" />
        </mxCell>
        <mxCell id="qcs8tJE03QUGFS-U6SH_-5" value="Query Builder" style="whiteSpace=wrap;html=1;rounded=1;" vertex="1" parent="1">
          <mxGeometry x="175" y="350" width="120" height="60" as="geometry" />
        </mxCell>
        <mxCell id="qcs8tJE03QUGFS-U6SH_-6" value="" style="edgeStyle=orthogonalEdgeStyle;rounded=0;orthogonalLoop=1;jettySize=auto;html=1;" edge="1" parent="1" source="qcs8tJE03QUGFS-U6SH_-1" target="qcs8tJE03QUGFS-U6SH_-5">
          <mxGeometry relative="1" as="geometry" />
        </mxCell>
        <mxCell id="qcs8tJE03QUGFS-U6SH_-38" value="" style="edgeStyle=orthogonalEdgeStyle;rounded=0;orthogonalLoop=1;jettySize=auto;html=1;" edge="1" parent="1" source="qcs8tJE03QUGFS-U6SH_-7" target="qcs8tJE03QUGFS-U6SH_-37">
          <mxGeometry relative="1" as="geometry" />
        </mxCell>
        <mxCell id="qcs8tJE03QUGFS-U6SH_-7" value="Timestream DB" style="whiteSpace=wrap;html=1;rounded=1;" vertex="1" parent="1">
          <mxGeometry x="175" y="490" width="120" height="60" as="geometry" />
        </mxCell>
        <mxCell id="qcs8tJE03QUGFS-U6SH_-9" value="" style="sketch=0;points=[[0,0,0],[0.25,0,0],[0.5,0,0],[0.75,0,0],[1,0,0],[0,1,0],[0.25,1,0],[0.5,1,0],[0.75,1,0],[1,1,0],[0,0.25,0],[0,0.5,0],[0,0.75,0],[1,0.25,0],[1,0.5,0],[1,0.75,0]];outlineConnect=0;fontColor=#232F3E;fillColor=#C925D1;strokeColor=#ffffff;dashed=0;verticalLabelPosition=bottom;verticalAlign=top;align=center;html=1;fontSize=12;fontStyle=0;aspect=fixed;shape=mxgraph.aws4.resourceIcon;resIcon=mxgraph.aws4.timestream;" vertex="1" parent="1">
          <mxGeometry x="270" y="530" width="40" height="40" as="geometry" />
        </mxCell>
        <mxCell id="qcs8tJE03QUGFS-U6SH_-12" value="&lt;b&gt;&lt;font style=&quot;font-size: 15px;&quot;&gt;Existing Architecture&lt;/font&gt;&lt;/b&gt;" style="text;html=1;whiteSpace=wrap;strokeColor=none;fillColor=none;align=center;verticalAlign=middle;rounded=0;" vertex="1" parent="1">
          <mxGeometry x="157.5" y="110" width="155" height="30" as="geometry" />
        </mxCell>
        <mxCell id="qcs8tJE03QUGFS-U6SH_-14" value="" style="group" vertex="1" connectable="0" parent="1">
          <mxGeometry x="580" y="160" width="170" height="110" as="geometry" />
        </mxCell>
        <mxCell id="qcs8tJE03QUGFS-U6SH_-15" value="Analyze Server" style="rounded=1;whiteSpace=wrap;html=1;" vertex="1" parent="qcs8tJE03QUGFS-U6SH_-14">
          <mxGeometry width="170" height="90" as="geometry" />
        </mxCell>
        <mxCell id="qcs8tJE03QUGFS-U6SH_-16" value="" style="image;aspect=fixed;perimeter=ellipsePerimeter;html=1;align=center;shadow=0;dashed=0;spacingTop=3;image=img/lib/active_directory/generic_server.svg;" vertex="1" parent="qcs8tJE03QUGFS-U6SH_-14">
          <mxGeometry x="120" y="60" width="28.000000000000004" height="50" as="geometry" />
        </mxCell>
        <mxCell id="qcs8tJE03QUGFS-U6SH_-22" value="" style="edgeStyle=orthogonalEdgeStyle;rounded=0;orthogonalLoop=1;jettySize=auto;html=1;" edge="1" parent="1" source="qcs8tJE03QUGFS-U6SH_-19" target="qcs8tJE03QUGFS-U6SH_-21">
          <mxGeometry relative="1" as="geometry" />
        </mxCell>
        <mxCell id="qcs8tJE03QUGFS-U6SH_-19" value="MetadataCache" style="whiteSpace=wrap;html=1;rounded=1;fillColor=#008a00;fontColor=#ffffff;strokeColor=#005700;" vertex="1" parent="1">
          <mxGeometry x="605" y="310" width="120" height="60" as="geometry" />
        </mxCell>
        <mxCell id="qcs8tJE03QUGFS-U6SH_-20" value="" style="edgeStyle=orthogonalEdgeStyle;rounded=0;orthogonalLoop=1;jettySize=auto;html=1;" edge="1" parent="1" source="qcs8tJE03QUGFS-U6SH_-15" target="qcs8tJE03QUGFS-U6SH_-19">
          <mxGeometry relative="1" as="geometry" />
        </mxCell>
        <mxCell id="qcs8tJE03QUGFS-U6SH_-24" value="" style="edgeStyle=orthogonalEdgeStyle;rounded=0;orthogonalLoop=1;jettySize=auto;html=1;" edge="1" parent="1" source="qcs8tJE03QUGFS-U6SH_-21" target="qcs8tJE03QUGFS-U6SH_-23">
          <mxGeometry relative="1" as="geometry" />
        </mxCell>
        <mxCell id="qcs8tJE03QUGFS-U6SH_-26" value="" style="edgeStyle=orthogonalEdgeStyle;rounded=0;orthogonalLoop=1;jettySize=auto;html=1;" edge="1" parent="1" source="qcs8tJE03QUGFS-U6SH_-21" target="qcs8tJE03QUGFS-U6SH_-25">
          <mxGeometry relative="1" as="geometry" />
        </mxCell>
        <mxCell id="qcs8tJE03QUGFS-U6SH_-28" value="" style="edgeStyle=orthogonalEdgeStyle;rounded=0;orthogonalLoop=1;jettySize=auto;html=1;" edge="1" parent="1" source="qcs8tJE03QUGFS-U6SH_-21" target="qcs8tJE03QUGFS-U6SH_-27">
          <mxGeometry relative="1" as="geometry" />
        </mxCell>
        <mxCell id="qcs8tJE03QUGFS-U6SH_-21" value="Connection Manager" style="whiteSpace=wrap;html=1;rounded=1;fillColor=#0050ef;fontColor=#ffffff;strokeColor=#001DBC;" vertex="1" parent="1">
          <mxGeometry x="605" y="440" width="120" height="60" as="geometry" />
        </mxCell>
        <mxCell id="qcs8tJE03QUGFS-U6SH_-30" value="" style="edgeStyle=orthogonalEdgeStyle;rounded=0;orthogonalLoop=1;jettySize=auto;html=1;" edge="1" parent="1" source="qcs8tJE03QUGFS-U6SH_-23" target="qcs8tJE03QUGFS-U6SH_-29">
          <mxGeometry relative="1" as="geometry" />
        </mxCell>
        <mxCell id="qcs8tJE03QUGFS-U6SH_-23" value="SMT" style="whiteSpace=wrap;html=1;rounded=1;" vertex="1" parent="1">
          <mxGeometry x="605" y="560" width="120" height="60" as="geometry" />
        </mxCell>
        <mxCell id="qcs8tJE03QUGFS-U6SH_-32" value="" style="edgeStyle=orthogonalEdgeStyle;rounded=0;orthogonalLoop=1;jettySize=auto;html=1;" edge="1" parent="1" source="qcs8tJE03QUGFS-U6SH_-25" target="qcs8tJE03QUGFS-U6SH_-31">
          <mxGeometry relative="1" as="geometry" />
        </mxCell>
        <mxCell id="qcs8tJE03QUGFS-U6SH_-25" value="NCEMC" style="whiteSpace=wrap;html=1;rounded=1;" vertex="1" parent="1">
          <mxGeometry x="460" y="560" width="120" height="60" as="geometry" />
        </mxCell>
        <mxCell id="qcs8tJE03QUGFS-U6SH_-34" value="" style="edgeStyle=orthogonalEdgeStyle;rounded=0;orthogonalLoop=1;jettySize=auto;html=1;" edge="1" parent="1" source="qcs8tJE03QUGFS-U6SH_-27" target="qcs8tJE03QUGFS-U6SH_-33">
          <mxGeometry relative="1" as="geometry" />
        </mxCell>
        <mxCell id="qcs8tJE03QUGFS-U6SH_-27" value="Prologis" style="whiteSpace=wrap;html=1;rounded=1;" vertex="1" parent="1">
          <mxGeometry x="760" y="560" width="120" height="60" as="geometry" />
        </mxCell>
        <mxCell id="qcs8tJE03QUGFS-U6SH_-45" value="" style="edgeStyle=orthogonalEdgeStyle;rounded=0;orthogonalLoop=1;jettySize=auto;html=1;" edge="1" parent="1" source="qcs8tJE03QUGFS-U6SH_-29" target="qcs8tJE03QUGFS-U6SH_-43">
          <mxGeometry relative="1" as="geometry" />
        </mxCell>
        <mxCell id="qcs8tJE03QUGFS-U6SH_-29" value="TimeScale DB" style="whiteSpace=wrap;html=1;rounded=1;" vertex="1" parent="1">
          <mxGeometry x="605" y="690" width="120" height="60" as="geometry" />
        </mxCell>
        <mxCell id="qcs8tJE03QUGFS-U6SH_-42" value="" style="edgeStyle=orthogonalEdgeStyle;rounded=0;orthogonalLoop=1;jettySize=auto;html=1;" edge="1" parent="1" source="qcs8tJE03QUGFS-U6SH_-31" target="qcs8tJE03QUGFS-U6SH_-41">
          <mxGeometry relative="1" as="geometry" />
        </mxCell>
        <mxCell id="qcs8tJE03QUGFS-U6SH_-31" value="TimeScale DB" style="whiteSpace=wrap;html=1;rounded=1;" vertex="1" parent="1">
          <mxGeometry x="460" y="690" width="120" height="60" as="geometry" />
        </mxCell>
        <mxCell id="qcs8tJE03QUGFS-U6SH_-33" value="TimeScale DB" style="whiteSpace=wrap;html=1;rounded=1;" vertex="1" parent="1">
          <mxGeometry x="760" y="690" width="120" height="60" as="geometry" />
        </mxCell>
        <mxCell id="qcs8tJE03QUGFS-U6SH_-35" value="" style="outlineConnect=0;dashed=0;verticalLabelPosition=bottom;verticalAlign=top;align=center;html=1;shape=mxgraph.aws3.dynamo_db;fillColor=#2E73B8;gradientColor=none;" vertex="1" parent="1">
          <mxGeometry x="700" y="350" width="30" height="41" as="geometry" />
        </mxCell>
        <mxCell id="qcs8tJE03QUGFS-U6SH_-36" value="&lt;b&gt;&lt;font style=&quot;font-size: 15px;&quot;&gt;New Architecture&lt;/font&gt;&lt;/b&gt;" style="text;html=1;whiteSpace=wrap;strokeColor=none;fillColor=none;align=center;verticalAlign=middle;rounded=0;" vertex="1" parent="1">
          <mxGeometry x="587.5" y="110" width="155" height="30" as="geometry" />
        </mxCell>
        <mxCell id="qcs8tJE03QUGFS-U6SH_-37" value="metrics_minute&lt;div&gt;&lt;span style=&quot;background-color: transparent; color: light-dark(rgb(0, 0, 0), rgb(255, 255, 255));&quot;&gt;metrics_hours&lt;/span&gt;&lt;div&gt;metrics_daily&lt;/div&gt;&lt;div&gt;predictive_maintenance&lt;/div&gt;&lt;div&gt;events&lt;/div&gt;&lt;/div&gt;" style="whiteSpace=wrap;html=1;rounded=1;" vertex="1" parent="1">
          <mxGeometry x="150" y="630" width="170" height="110" as="geometry" />
        </mxCell>
        <mxCell id="qcs8tJE03QUGFS-U6SH_-41" value="Bronze&lt;div&gt;Silver&lt;/div&gt;&lt;div&gt;Gold&lt;/div&gt;" style="whiteSpace=wrap;html=1;rounded=1;" vertex="1" parent="1">
          <mxGeometry x="460" y="800" width="120" height="60" as="geometry" />
        </mxCell>
        <mxCell id="qcs8tJE03QUGFS-U6SH_-43" value="Bronze&lt;div&gt;Silver&lt;/div&gt;&lt;div&gt;Gold&lt;/div&gt;" style="whiteSpace=wrap;html=1;rounded=1;" vertex="1" parent="1">
          <mxGeometry x="605" y="800" width="120" height="60" as="geometry" />
        </mxCell>
        <mxCell id="qcs8tJE03QUGFS-U6SH_-44" value="Bronze&lt;div&gt;Silver&lt;/div&gt;&lt;div&gt;Gold&lt;/div&gt;" style="whiteSpace=wrap;html=1;rounded=1;" vertex="1" parent="1">
          <mxGeometry x="760" y="800" width="120" height="60" as="geometry" />
        </mxCell>
        <mxCell id="qcs8tJE03QUGFS-U6SH_-84" value="" style="group" vertex="1" connectable="0" parent="1">
          <mxGeometry x="1925" y="170" width="170" height="110" as="geometry" />
        </mxCell>
        <mxCell id="qcs8tJE03QUGFS-U6SH_-85" value="Analyze Server" style="rounded=1;whiteSpace=wrap;html=1;" vertex="1" parent="qcs8tJE03QUGFS-U6SH_-84">
          <mxGeometry width="170" height="90" as="geometry" />
        </mxCell>
        <mxCell id="qcs8tJE03QUGFS-U6SH_-86" value="" style="image;aspect=fixed;perimeter=ellipsePerimeter;html=1;align=center;shadow=0;dashed=0;spacingTop=3;image=img/lib/active_directory/generic_server.svg;" vertex="1" parent="qcs8tJE03QUGFS-U6SH_-84">
          <mxGeometry x="120" y="60" width="28.000000000000004" height="50" as="geometry" />
        </mxCell>
        <mxCell id="qcs8tJE03QUGFS-U6SH_-88" value="" style="edgeStyle=orthogonalEdgeStyle;rounded=0;orthogonalLoop=1;jettySize=auto;html=1;" edge="1" parent="1" source="qcs8tJE03QUGFS-U6SH_-110" target="qcs8tJE03QUGFS-U6SH_-93">
          <mxGeometry relative="1" as="geometry" />
        </mxCell>
        <mxCell id="qcs8tJE03QUGFS-U6SH_-89" value="" style="edgeStyle=orthogonalEdgeStyle;rounded=0;orthogonalLoop=1;jettySize=auto;html=1;" edge="1" parent="1" source="qcs8tJE03QUGFS-U6SH_-108" target="qcs8tJE03QUGFS-U6SH_-95">
          <mxGeometry relative="1" as="geometry" />
        </mxCell>
        <mxCell id="qcs8tJE03QUGFS-U6SH_-90" value="" style="edgeStyle=orthogonalEdgeStyle;rounded=0;orthogonalLoop=1;jettySize=auto;html=1;" edge="1" parent="1" source="qcs8tJE03QUGFS-U6SH_-112" target="qcs8tJE03QUGFS-U6SH_-97">
          <mxGeometry relative="1" as="geometry" />
        </mxCell>
        <mxCell id="qcs8tJE03QUGFS-U6SH_-91" value="Connection Manager" style="whiteSpace=wrap;html=1;rounded=1;fillColor=#0050ef;fontColor=#ffffff;strokeColor=#001DBC;" vertex="1" parent="1">
          <mxGeometry x="1950" y="331" width="120" height="60" as="geometry" />
        </mxCell>
        <mxCell id="qcs8tJE03QUGFS-U6SH_-92" value="" style="edgeStyle=orthogonalEdgeStyle;rounded=0;orthogonalLoop=1;jettySize=auto;html=1;" edge="1" parent="1" source="qcs8tJE03QUGFS-U6SH_-93" target="qcs8tJE03QUGFS-U6SH_-99">
          <mxGeometry relative="1" as="geometry" />
        </mxCell>
        <mxCell id="qcs8tJE03QUGFS-U6SH_-118" value="" style="edgeStyle=orthogonalEdgeStyle;rounded=0;orthogonalLoop=1;jettySize=auto;html=1;shape=wire;dashed=1;startArrow=none;startFill=0;endArrow=none;endFill=0;" edge="1" parent="1" source="qcs8tJE03QUGFS-U6SH_-93" target="qcs8tJE03QUGFS-U6SH_-110">
          <mxGeometry relative="1" as="geometry" />
        </mxCell>
        <mxCell id="qcs8tJE03QUGFS-U6SH_-93" value="SMT" style="whiteSpace=wrap;html=1;rounded=1;" vertex="1" parent="1">
          <mxGeometry x="1950" y="530" width="120" height="60" as="geometry" />
        </mxCell>
        <mxCell id="qcs8tJE03QUGFS-U6SH_-94" value="" style="edgeStyle=orthogonalEdgeStyle;rounded=0;orthogonalLoop=1;jettySize=auto;html=1;" edge="1" parent="1" source="qcs8tJE03QUGFS-U6SH_-95" target="qcs8tJE03QUGFS-U6SH_-101">
          <mxGeometry relative="1" as="geometry" />
        </mxCell>
        <mxCell id="qcs8tJE03QUGFS-U6SH_-95" value="NCEMC" style="whiteSpace=wrap;html=1;rounded=1;" vertex="1" parent="1">
          <mxGeometry x="1800" y="530" width="120" height="60" as="geometry" />
        </mxCell>
        <mxCell id="qcs8tJE03QUGFS-U6SH_-96" value="" style="edgeStyle=orthogonalEdgeStyle;rounded=0;orthogonalLoop=1;jettySize=auto;html=1;" edge="1" parent="1" source="qcs8tJE03QUGFS-U6SH_-97" target="qcs8tJE03QUGFS-U6SH_-103">
          <mxGeometry relative="1" as="geometry" />
        </mxCell>
        <mxCell id="qcs8tJE03QUGFS-U6SH_-97" value="Prologis" style="whiteSpace=wrap;html=1;rounded=1;" vertex="1" parent="1">
          <mxGeometry x="2100" y="530" width="120" height="60" as="geometry" />
        </mxCell>
        <mxCell id="qcs8tJE03QUGFS-U6SH_-99" value="TimeScale DB" style="whiteSpace=wrap;html=1;rounded=1;" vertex="1" parent="1">
          <mxGeometry x="1950" y="640" width="120" height="60" as="geometry" />
        </mxCell>
        <mxCell id="qcs8tJE03QUGFS-U6SH_-100" value="" style="edgeStyle=orthogonalEdgeStyle;rounded=0;orthogonalLoop=1;jettySize=auto;html=1;" edge="1" parent="1" source="qcs8tJE03QUGFS-U6SH_-101" target="qcs8tJE03QUGFS-U6SH_-104">
          <mxGeometry relative="1" as="geometry" />
        </mxCell>
        <mxCell id="qcs8tJE03QUGFS-U6SH_-101" value="TimeScale DB" style="whiteSpace=wrap;html=1;rounded=1;" vertex="1" parent="1">
          <mxGeometry x="1800" y="640" width="120" height="60" as="geometry" />
        </mxCell>
        <mxCell id="qcs8tJE03QUGFS-U6SH_-102" value="" style="edgeStyle=orthogonalEdgeStyle;rounded=0;orthogonalLoop=1;jettySize=auto;html=1;" edge="1" parent="1" source="qcs8tJE03QUGFS-U6SH_-103" target="qcs8tJE03QUGFS-U6SH_-106">
          <mxGeometry relative="1" as="geometry" />
        </mxCell>
        <mxCell id="qcs8tJE03QUGFS-U6SH_-103" value="TimeScale DB" style="whiteSpace=wrap;html=1;rounded=1;" vertex="1" parent="1">
          <mxGeometry x="2100" y="640" width="120" height="60" as="geometry" />
        </mxCell>
        <mxCell id="qcs8tJE03QUGFS-U6SH_-104" value="Bronze&lt;div&gt;Silver&lt;/div&gt;&lt;div&gt;Gold&lt;/div&gt;" style="whiteSpace=wrap;html=1;rounded=1;" vertex="1" parent="1">
          <mxGeometry x="1800" y="740" width="120" height="60" as="geometry" />
        </mxCell>
        <mxCell id="qcs8tJE03QUGFS-U6SH_-121" value="" style="edgeStyle=orthogonalEdgeStyle;rounded=0;orthogonalLoop=1;jettySize=auto;html=1;endArrow=none;endFill=0;startArrow=block;startFill=1;" edge="1" parent="1" source="qcs8tJE03QUGFS-U6SH_-105" target="qcs8tJE03QUGFS-U6SH_-99">
          <mxGeometry relative="1" as="geometry" />
        </mxCell>
        <mxCell id="qcs8tJE03QUGFS-U6SH_-105" value="Bronze&lt;div&gt;Silver&lt;/div&gt;&lt;div&gt;Gold&lt;/div&gt;" style="whiteSpace=wrap;html=1;rounded=1;" vertex="1" parent="1">
          <mxGeometry x="1950" y="740" width="120" height="60" as="geometry" />
        </mxCell>
        <mxCell id="qcs8tJE03QUGFS-U6SH_-106" value="Bronze&lt;div&gt;Silver&lt;/div&gt;&lt;div&gt;Gold&lt;/div&gt;" style="whiteSpace=wrap;html=1;rounded=1;" vertex="1" parent="1">
          <mxGeometry x="2100" y="740" width="120" height="60" as="geometry" />
        </mxCell>
        <mxCell id="qcs8tJE03QUGFS-U6SH_-107" value="" style="edgeStyle=orthogonalEdgeStyle;rounded=0;orthogonalLoop=1;jettySize=auto;html=1;" edge="1" parent="1" source="qcs8tJE03QUGFS-U6SH_-91" target="qcs8tJE03QUGFS-U6SH_-108">
          <mxGeometry relative="1" as="geometry">
            <mxPoint x="1945" y="410" as="sourcePoint" />
            <mxPoint x="1860" y="530" as="targetPoint" />
          </mxGeometry>
        </mxCell>
        <mxCell id="qcs8tJE03QUGFS-U6SH_-108" value="" style="sketch=0;points=[[0,0,0],[0.25,0,0],[0.5,0,0],[0.75,0,0],[1,0,0],[0,1,0],[0.25,1,0],[0.5,1,0],[0.75,1,0],[1,1,0],[0,0.25,0],[0,0.5,0],[0,0.75,0],[1,0.25,0],[1,0.5,0],[1,0.75,0]];outlineConnect=0;fontColor=#232F3E;fillColor=#DD344C;strokeColor=#ffffff;dashed=0;verticalLabelPosition=bottom;verticalAlign=top;align=center;html=1;fontSize=12;fontStyle=0;aspect=fixed;shape=mxgraph.aws4.resourceIcon;resIcon=mxgraph.aws4.secrets_manager;" vertex="1" parent="1">
          <mxGeometry x="1840" y="450" width="40" height="40" as="geometry" />
        </mxCell>
        <mxCell id="qcs8tJE03QUGFS-U6SH_-109" value="" style="edgeStyle=orthogonalEdgeStyle;rounded=0;orthogonalLoop=1;jettySize=auto;html=1;" edge="1" parent="1" source="qcs8tJE03QUGFS-U6SH_-91" target="qcs8tJE03QUGFS-U6SH_-110">
          <mxGeometry relative="1" as="geometry">
            <mxPoint x="2005" y="440" as="sourcePoint" />
            <mxPoint x="2005" y="530" as="targetPoint" />
          </mxGeometry>
        </mxCell>
        <mxCell id="qcs8tJE03QUGFS-U6SH_-110" value="" style="sketch=0;points=[[0,0,0],[0.25,0,0],[0.5,0,0],[0.75,0,0],[1,0,0],[0,1,0],[0.25,1,0],[0.5,1,0],[0.75,1,0],[1,1,0],[0,0.25,0],[0,0.5,0],[0,0.75,0],[1,0.25,0],[1,0.5,0],[1,0.75,0]];outlineConnect=0;fontColor=#232F3E;fillColor=#DD344C;strokeColor=#ffffff;dashed=0;verticalLabelPosition=bottom;verticalAlign=top;align=center;html=1;fontSize=12;fontStyle=0;aspect=fixed;shape=mxgraph.aws4.resourceIcon;resIcon=mxgraph.aws4.secrets_manager;" vertex="1" parent="1">
          <mxGeometry x="1990" y="450" width="40" height="40" as="geometry" />
        </mxCell>
        <mxCell id="qcs8tJE03QUGFS-U6SH_-111" value="" style="edgeStyle=orthogonalEdgeStyle;rounded=0;orthogonalLoop=1;jettySize=auto;html=1;" edge="1" parent="1" source="qcs8tJE03QUGFS-U6SH_-91" target="qcs8tJE03QUGFS-U6SH_-112">
          <mxGeometry relative="1" as="geometry">
            <mxPoint x="2065" y="410" as="sourcePoint" />
            <mxPoint x="2160" y="530" as="targetPoint" />
          </mxGeometry>
        </mxCell>
        <mxCell id="qcs8tJE03QUGFS-U6SH_-112" value="" style="sketch=0;points=[[0,0,0],[0.25,0,0],[0.5,0,0],[0.75,0,0],[1,0,0],[0,1,0],[0.25,1,0],[0.5,1,0],[0.75,1,0],[1,1,0],[0,0.25,0],[0,0.5,0],[0,0.75,0],[1,0.25,0],[1,0.5,0],[1,0.75,0]];outlineConnect=0;fontColor=#232F3E;fillColor=#DD344C;strokeColor=#ffffff;dashed=0;verticalLabelPosition=bottom;verticalAlign=top;align=center;html=1;fontSize=12;fontStyle=0;aspect=fixed;shape=mxgraph.aws4.resourceIcon;resIcon=mxgraph.aws4.secrets_manager;" vertex="1" parent="1">
          <mxGeometry x="2140" y="450" width="40" height="40" as="geometry" />
        </mxCell>
        <mxCell id="qcs8tJE03QUGFS-U6SH_-114" value="" style="edgeStyle=orthogonalEdgeStyle;rounded=0;orthogonalLoop=1;jettySize=auto;html=1;exitX=0.5;exitY=1;exitDx=0;exitDy=0;entryX=0.5;entryY=0;entryDx=0;entryDy=0;" edge="1" parent="1" source="qcs8tJE03QUGFS-U6SH_-85" target="qcs8tJE03QUGFS-U6SH_-91">
          <mxGeometry relative="1" as="geometry">
            <mxPoint x="2005" y="260" as="sourcePoint" />
            <mxPoint x="2005.0588235294117" y="300" as="targetPoint" />
          </mxGeometry>
        </mxCell>
        <mxCell id="qcs8tJE03QUGFS-U6SH_-122" value="&lt;b&gt;&lt;font style=&quot;font-size: 15px;&quot;&gt;New Architecture&lt;/font&gt;&lt;/b&gt;" style="text;html=1;whiteSpace=wrap;strokeColor=none;fillColor=none;align=center;verticalAlign=middle;rounded=0;" vertex="1" parent="1">
          <mxGeometry x="1925" y="120" width="155" height="30" as="geometry" />
        </mxCell>
        <mxCell id="qcs8tJE03QUGFS-U6SH_-134" value="" style="group" vertex="1" connectable="0" parent="1">
          <mxGeometry x="1510" y="180" width="170" height="110" as="geometry" />
        </mxCell>
        <mxCell id="qcs8tJE03QUGFS-U6SH_-135" value="Analyze Server" style="rounded=1;whiteSpace=wrap;html=1;" vertex="1" parent="qcs8tJE03QUGFS-U6SH_-134">
          <mxGeometry width="170" height="90" as="geometry" />
        </mxCell>
        <mxCell id="qcs8tJE03QUGFS-U6SH_-136" value="" style="image;aspect=fixed;perimeter=ellipsePerimeter;html=1;align=center;shadow=0;dashed=0;spacingTop=3;image=img/lib/active_directory/generic_server.svg;" vertex="1" parent="qcs8tJE03QUGFS-U6SH_-134">
          <mxGeometry x="120" y="60" width="28.000000000000004" height="50" as="geometry" />
        </mxCell>
        <mxCell id="qcs8tJE03QUGFS-U6SH_-137" value="" style="edgeStyle=orthogonalEdgeStyle;rounded=0;orthogonalLoop=1;jettySize=auto;html=1;" edge="1" source="qcs8tJE03QUGFS-U6SH_-138" target="qcs8tJE03QUGFS-U6SH_-141" parent="1">
          <mxGeometry relative="1" as="geometry" />
        </mxCell>
        <mxCell id="qcs8tJE03QUGFS-U6SH_-138" value="Query Builder" style="whiteSpace=wrap;html=1;rounded=1;" vertex="1" parent="1">
          <mxGeometry x="1535" y="360" width="120" height="60" as="geometry" />
        </mxCell>
        <mxCell id="qcs8tJE03QUGFS-U6SH_-139" value="" style="edgeStyle=orthogonalEdgeStyle;rounded=0;orthogonalLoop=1;jettySize=auto;html=1;" edge="1" source="qcs8tJE03QUGFS-U6SH_-135" target="qcs8tJE03QUGFS-U6SH_-138" parent="1">
          <mxGeometry relative="1" as="geometry" />
        </mxCell>
        <mxCell id="qcs8tJE03QUGFS-U6SH_-140" value="" style="edgeStyle=orthogonalEdgeStyle;rounded=0;orthogonalLoop=1;jettySize=auto;html=1;" edge="1" source="qcs8tJE03QUGFS-U6SH_-141" target="qcs8tJE03QUGFS-U6SH_-144" parent="1">
          <mxGeometry relative="1" as="geometry" />
        </mxCell>
        <mxCell id="qcs8tJE03QUGFS-U6SH_-141" value="Timestream DB" style="whiteSpace=wrap;html=1;rounded=1;" vertex="1" parent="1">
          <mxGeometry x="1535" y="500" width="120" height="60" as="geometry" />
        </mxCell>
        <mxCell id="qcs8tJE03QUGFS-U6SH_-142" value="" style="sketch=0;points=[[0,0,0],[0.25,0,0],[0.5,0,0],[0.75,0,0],[1,0,0],[0,1,0],[0.25,1,0],[0.5,1,0],[0.75,1,0],[1,1,0],[0,0.25,0],[0,0.5,0],[0,0.75,0],[1,0.25,0],[1,0.5,0],[1,0.75,0]];outlineConnect=0;fontColor=#232F3E;fillColor=#C925D1;strokeColor=#ffffff;dashed=0;verticalLabelPosition=bottom;verticalAlign=top;align=center;html=1;fontSize=12;fontStyle=0;aspect=fixed;shape=mxgraph.aws4.resourceIcon;resIcon=mxgraph.aws4.timestream;" vertex="1" parent="1">
          <mxGeometry x="1630" y="540" width="40" height="40" as="geometry" />
        </mxCell>
        <mxCell id="qcs8tJE03QUGFS-U6SH_-143" value="&lt;b&gt;&lt;font style=&quot;font-size: 15px;&quot;&gt;Existing Architecture&lt;/font&gt;&lt;/b&gt;" style="text;html=1;whiteSpace=wrap;strokeColor=none;fillColor=none;align=center;verticalAlign=middle;rounded=0;" vertex="1" parent="1">
          <mxGeometry x="1517.5" y="120" width="155" height="30" as="geometry" />
        </mxCell>
        <mxCell id="qcs8tJE03QUGFS-U6SH_-144" value="metrics_minute&lt;div&gt;&lt;span style=&quot;background-color: transparent; color: light-dark(rgb(0, 0, 0), rgb(255, 255, 255));&quot;&gt;metrics_hours&lt;/span&gt;&lt;div&gt;metrics_daily&lt;/div&gt;&lt;div&gt;predictive_maintenance&lt;/div&gt;&lt;div&gt;events&lt;/div&gt;&lt;/div&gt;" style="whiteSpace=wrap;html=1;rounded=1;" vertex="1" parent="1">
          <mxGeometry x="1510" y="640" width="170" height="110" as="geometry" />
        </mxCell>
      </root>
    </mxGraphModel>
  </diagram>
</mxfile>
